<?xml version="1.0" standalone="no"?>
<!DOCTYPE svg PUBLIC "-//W3C//DTD SVG 20010904//EN"
 "http://www.w3.org/TR/2001/REC-SVG-20010904/DTD/svg10.dtd">
<svg version="1.0" xmlns="http://www.w3.org/2000/svg"
 width="400.000000pt" height="400.000000pt" viewBox="0 0 400.000000 400.000000"
 preserveAspectRatio="xMidYMid meet">
<metadata>
Created by potrace 1.14, written by Peter Selinger 2001-2017
</metadata>
<g transform="translate(0.000000,400.000000) scale(0.100000,-0.100000)"
fill="#000000" stroke="none">
<path d="M490 3991 c0 -5 -10 -12 -22 -14 -21 -4 -20 -4 3 -6 15 0 32 6 39 14
10 12 10 15 -4 15 -9 0 -16 -4 -16 -9z"/>
<path d="M736 3984 c-4 -10 -13 -13 -25 -9 -11 3 -31 -1 -44 -10 -24 -15 -50
-15 -126 1 -23 5 -32 4 -28 -3 4 -6 23 -14 42 -17 44 -9 186 4 179 15 -3 5 -1
9 4 9 6 0 12 7 16 15 3 8 1 15 -3 15 -5 0 -12 -7 -15 -16z"/>
<path d="M945 3990 c-41 -6 -44 -7 -17 -9 65 -6 77 -5 97 7 19 11 19 11 -5 10
-14 -1 -47 -4 -75 -8z"/>
<path d="M1073 3986 c19 -10 34 -12 50 -6 22 9 22 9 -3 10 -14 0 -36 3 -50 6
-24 6 -24 5 3 -10z"/>
<path d="M2866 3943 c-6 -14 -5 -15 5 -6 7 7 10 15 7 18 -3 3 -9 -2 -12 -12z"/>
<path d="M1528 3903 c7 -3 16 -2 19 1 4 3 -2 6 -13 5 -11 0 -14 -3 -6 -6z"/>
<path d="M3968 3833 c7 -3 16 -2 19 1 4 3 -2 6 -13 5 -11 0 -14 -3 -6 -6z"/>
<path d="M2100 3800 c-9 -6 -10 -10 -3 -10 6 0 15 5 18 10 8 12 4 12 -15 0z"/>
<path d="M3763 3763 c9 -2 25 -2 35 0 9 3 1 5 -18 5 -19 0 -27 -2 -17 -5z"/>
<path d="M2160 3756 c0 -2 7 -7 16 -10 8 -3 12 -2 9 4 -6 10 -25 14 -25 6z"/>
<path d="M2045 3343 c-4 -13 -11 -23 -16 -23 -5 0 -9 -7 -9 -15 0 -8 -5 -15
-10 -15 -12 0 -60 -45 -60 -55 0 -8 -47 -71 -77 -105 -13 -14 -23 -29 -23 -33
0 -5 -16 -27 -35 -49 -19 -23 -32 -45 -29 -49 3 -5 0 -9 -7 -9 -6 0 -44 -34
-84 -75 -40 -41 -81 -75 -90 -75 -18 0 -105 -48 -105 -58 0 -4 -24 -33 -54
-64 -30 -31 -51 -59 -48 -62 3 -3 0 -6 -6 -6 -7 0 -11 -3 -10 -7 1 -5 -8 -28
-21 -51 -12 -24 -20 -46 -17 -49 3 -3 -2 -12 -10 -21 -9 -8 -13 -23 -11 -33 3
-11 1 -19 -5 -19 -6 0 -8 -9 -5 -20 3 -12 0 -20 -7 -20 -19 0 -35 -60 -42
-158 -4 -51 -11 -92 -15 -92 -5 0 -9 -9 -9 -20 0 -11 4 -20 10 -20 5 0 9 -3 9
-7 -1 -5 0 -10 1 -13 3 -10 11 -46 17 -83 3 -21 10 -40 14 -43 5 -3 9 -16 9
-29 0 -13 4 -26 10 -30 13 -8 51 -136 43 -148 -3 -5 4 -15 16 -24 12 -8 31
-34 42 -59 12 -24 25 -44 30 -44 5 0 8 -3 7 -7 -4 -16 45 -83 60 -83 11 0 6
-11 -19 -37 -70 -74 -99 -137 -114 -243 -8 -61 2 -46 15 21 16 84 40 141 58
134 11 -4 12 -2 4 8 -9 10 -7 17 6 29 9 9 25 28 35 42 10 14 26 26 35 26 10 0
13 -3 7 -8 -12 -8 -26 -31 -60 -94 -15 -29 -34 -96 -48 -175 -23 -121 -40
-170 -86 -237 -11 -17 -18 -33 -15 -38 3 -4 1 -8 -5 -8 -16 0 -51 -75 -54
-115 -3 -34 -16 -60 -18 -37 -3 26 -4 31 -12 38 -10 11 -9 52 3 75 7 13 7 19
1 19 -31 0 -24 -110 9 -145 26 -28 100 -50 136 -41 23 6 25 5 19 -11 -5 -10
-14 -49 -21 -88 -14 -71 -6 -183 17 -244 53 -138 62 -269 25 -374 l-24 -67 90
0 90 0 -7 72 c-3 40 -15 100 -25 133 -33 105 -62 277 -64 370 0 50 -5 93 -11
97 -6 5 -5 8 3 8 6 0 12 7 12 15 0 12 4 13 25 3 24 -11 24 -11 18 -118 -5 -93
-3 -116 17 -181 12 -41 22 -75 21 -76 0 -2 6 -20 14 -40 21 -53 45 -161 45
-203 0 -26 3 -31 10 -20 6 10 8 4 4 -22 -5 -31 -4 -36 12 -35 11 1 22 7 27 12
4 7 10 6 15 0 13 -20 49 -14 61 9 7 12 26 30 42 40 16 9 29 25 29 35 0 10 11
24 25 31 14 7 25 17 25 22 0 4 6 8 13 8 19 0 77 30 77 39 0 14 33 7 68 -14 30
-18 32 -23 27 -60 -4 -29 -3 -36 5 -25 5 8 10 23 10 33 0 45 40 -2 41 -50 1
-39 3 -38 14 11 6 29 10 30 74 10 16 -5 22 -4 18 4 -4 5 -1 13 5 16 7 4 3 4
-9 2 -13 -2 -23 -1 -23 3 0 4 -12 13 -27 20 -20 9 -28 9 -34 0 -4 -8 -9 -4
-14 11 -5 16 -9 19 -15 10 -6 -10 -12 -9 -26 5 -10 10 -38 27 -61 37 -24 10
-43 22 -43 26 0 4 -14 23 -30 42 -50 58 -103 182 -113 265 -3 22 -10 64 -17
93 -9 39 -9 57 -1 65 16 16 14 24 -9 30 -11 3 -20 12 -20 20 0 10 7 13 18 10
15 -4 19 1 19 25 0 20 -5 28 -13 25 -6 -2 -15 0 -19 6 -4 7 4 11 19 12 14 1
31 3 36 4 6 1 13 3 18 4 4 1 -4 7 -17 12 -13 5 -32 7 -42 4 -11 -4 -19 -2 -19
4 0 5 -6 11 -12 14 -7 2 -2 2 10 0 29 -5 59 16 41 28 -10 6 -10 16 -2 43 6 19
8 35 4 34 -25 -3 -51 4 -46 12 3 6 1 10 -5 10 -7 0 -10 6 -7 13 2 6 0 20 -5
31 -9 17 -7 18 18 12 l27 -7 -31 29 c-37 34 -41 52 -12 52 11 0 19 -5 18 -11
-4 -18 52 -34 62 -19 4 7 15 10 23 7 11 -4 14 -1 10 9 -3 7 0 14 6 14 6 0 11
-5 11 -11 0 -6 6 -9 13 -6 6 2 11 12 9 22 -2 9 4 25 14 36 9 10 14 27 11 39
-4 17 -2 19 19 14 13 -3 24 -2 25 2 0 5 2 19 5 32 2 13 0 31 -5 40 -9 18 11
47 23 34 4 -3 4 2 0 13 -7 18 -6 19 11 5 17 -14 18 -14 7 7 -18 32 -16 33 34
18 25 -7 52 -11 60 -8 8 3 14 0 14 -5 0 -6 19 -9 48 -7 67 5 192 -14 192 -30
0 -18 61 -75 87 -81 13 -4 20 -10 17 -15 -3 -5 -1 -9 4 -9 6 0 8 -8 6 -17 -5
-25 48 -85 69 -77 15 5 15 9 2 34 -8 15 -12 30 -9 32 2 3 -2 11 -11 18 -22 18
-18 30 10 30 55 0 97 37 116 102 9 32 -8 87 -36 118 -13 14 -11 18 20 29 19 7
35 16 35 21 0 5 8 11 19 15 10 3 33 19 50 35 17 17 35 30 40 30 6 0 21 -19 35
-42 14 -24 26 -36 26 -27 0 8 -11 30 -24 48 -23 31 -24 35 -9 57 14 23 16 23
51 8 61 -26 62 -26 62 -20 0 3 -20 16 -44 28 l-45 23 19 40 c24 50 25 88 3
106 -15 13 -15 12 -5 -8 15 -28 16 -26 -12 -56 -16 -17 -26 -22 -29 -14 -4 9
-6 9 -6 -1 -1 -7 -6 -10 -12 -6 -7 4 -4 -7 6 -24 16 -26 17 -35 7 -57 -8 -17
-18 -25 -27 -21 -9 3 -12 0 -8 -10 8 -21 -7 -17 -36 9 l-26 22 24 -27 c12 -14
20 -31 16 -37 -14 -24 -68 -43 -103 -37 -31 5 -33 4 -16 -9 10 -7 22 -11 26
-9 5 3 8 2 8 -3 0 -20 -60 -34 -122 -27 -54 5 -71 3 -105 -15 -23 -11 -44 -25
-48 -31 -4 -7 -12 -7 -25 0 -11 6 -21 6 -24 1 -3 -5 -45 -7 -93 -5 -49 2 -96
4 -107 4 -10 1 -20 9 -23 20 -3 10 -16 21 -30 25 -31 7 -43 -1 -14 -10 24 -7
28 -25 7 -25 -8 0 -23 11 -33 24 -10 14 -27 26 -38 28 -16 2 -20 -2 -19 -27
l1 -30 -101 -1 c-56 0 -86 2 -68 5 18 3 32 11 32 16 -1 6 -8 9 -17 7 -11 -3
-14 1 -9 14 4 10 4 16 1 12 -3 -3 -18 5 -32 18 -31 28 -67 31 -83 7 -9 -15
-10 -13 -6 12 3 17 3 24 0 17 -3 -6 -10 -10 -15 -6 -5 3 -9 -2 -9 -10 0 -9 -4
-16 -10 -16 -13 0 -1 31 24 58 l21 23 -28 -10 c-26 -10 -29 -8 -49 25 -20 34
-22 35 -35 18 -7 -10 -13 -12 -13 -5 0 7 -4 9 -10 6 -5 -3 -10 -1 -10 4 0 6
-7 11 -16 11 -13 0 -14 3 -5 14 9 11 7 15 -9 19 -31 8 -34 9 -50 26 -8 8 -16
22 -17 30 -1 9 -5 46 -9 83 -4 37 -10 65 -15 62 -4 -2 -7 5 -6 16 1 11 4 20 8
20 11 0 29 -59 23 -75 -4 -9 0 -15 10 -15 9 0 16 -6 16 -12 1 -7 10 4 21 26
12 21 19 49 17 61 -3 15 0 22 10 21 22 -2 26 23 5 31 -29 11 -40 27 -37 50 3
15 -3 24 -17 28 -23 8 -40 -2 -22 -13 8 -5 5 -14 -8 -31 -11 -13 -22 -21 -25
-19 -3 3 2 13 11 21 8 9 11 18 6 22 -5 3 -12 1 -16 -5 -4 -6 -10 -8 -15 -5 -4
3 -14 -3 -21 -13 -13 -15 -12 -16 4 -3 15 12 17 11 17 -13 0 -15 -4 -25 -9
-21 -5 3 -17 -3 -27 -12 -16 -16 -16 -16 -10 5 4 12 3 22 -2 22 -19 0 -6 28
26 55 18 15 38 25 46 22 7 -3 19 -1 27 4 11 7 9 12 -10 25 -18 13 -20 18 -10
25 7 4 10 11 6 16 -5 4 -12 1 -16 -6 -5 -8 -14 -10 -22 -6 -11 6 -11 5 -2 -5
15 -16 6 -40 -13 -33 -8 3 -14 0 -14 -7 0 -6 -5 -8 -11 -5 -6 4 -7 19 -4 37 5
21 4 28 -4 24 -17 -11 -26 24 -10 36 10 7 11 11 3 14 -19 8 -5 43 14 38 10 -3
7 1 -5 7 -13 7 -23 20 -23 29 0 10 -7 21 -16 24 -8 3 -12 2 -9 -4 3 -6 -3 -10
-14 -10 -14 0 -19 5 -15 15 4 10 20 15 45 15 31 0 37 3 32 16 -4 10 -14 14
-29 11 -13 -2 -24 0 -24 5 0 5 -4 7 -9 4 -5 -4 -7 3 -4 14 3 11 10 17 16 13 6
-4 7 -1 2 7 -5 8 -1 18 11 28 18 14 18 14 -3 9 -19 -4 -23 -1 -22 16 0 12 3
17 5 11 6 -13 44 -7 44 7 0 5 5 9 11 9 14 0 40 -26 32 -34 -3 -3 -1 -11 5 -18
6 -7 12 -28 14 -46 2 -18 10 -37 17 -41 10 -6 9 -10 -4 -15 -14 -5 -14 -8 -3
-21 7 -8 19 -21 26 -30 14 -17 37 -11 26 7 -4 7 -2 8 5 4 6 -4 8 -12 5 -18
-13 -20 56 -68 100 -70 91 -4 137 3 158 25 10 9 27 17 38 17 22 0 26 10 9 27
-8 8 -8 13 0 17 6 4 11 4 11 0 0 -4 11 10 25 30 25 37 48 110 37 121 -3 3 9 2
26 -1 36 -7 65 13 52 37 -5 8 -11 28 -14 45 -2 16 -5 31 -5 34 -1 3 -6 -2 -12
-10 -8 -11 -9 -2 -5 34 4 35 1 56 -11 77 -20 34 -37 39 -28 8 11 -33 22 -129
16 -129 -3 0 -19 -23 -34 -50 -16 -28 -33 -50 -38 -50 -6 0 -15 -13 -20 -30
-6 -16 -18 -30 -26 -30 -8 0 -11 -4 -8 -10 3 -6 -1 -7 -10 -4 -9 4 -15 15 -13
28 2 11 -5 29 -14 38 -10 10 -15 24 -11 34 4 11 2 15 -4 11 -6 -4 -8 3 -6 17
3 15 -2 28 -14 37 -10 8 -30 38 -44 66 -14 29 -29 50 -32 46 -13 -12 -7 13 7
33 9 13 17 55 20 106 4 84 19 128 42 128 6 0 18 8 25 17 8 10 9 14 2 10 -6 -4
-14 -3 -18 3 -3 6 1 13 9 16 9 3 14 9 12 13 -2 3 7 20 21 36 14 17 22 25 19
18 -4 -6 -1 -15 5 -19 7 -4 9 -3 5 4 -3 6 -2 13 4 17 6 4 8 10 5 15 -3 5 6 21
20 37 44 48 105 127 105 136 0 14 74 113 99 132 19 15 25 15 32 4 7 -12 9 -11
8 1 -1 8 -5 26 -9 40 l-8 25 -7 -22z m-455 -758 c-4 -19 -5 -35 -1 -35 9 -1
-31 -30 -41 -30 -11 0 -5 43 7 52 6 5 5 8 -4 8 -8 0 -4 8 10 20 34 27 38 25
29 -15z m-173 -37 c-3 -8 -6 -5 -6 6 -1 11 2 17 5 13 3 -3 4 -12 1 -19z m163
-51 c0 -13 46 -52 62 -52 8 0 25 -26 44 -65 4 -8 16 -21 26 -28 15 -11 16 -17
7 -28 -8 -10 -15 -11 -24 -4 -9 7 -15 8 -19 1 -9 -13 -49 26 -43 42 2 6 -7 23
-20 37 -23 23 -53 82 -53 101 0 5 5 9 10 9 6 0 10 -6 10 -13z m-215 -46 c-17
-15 -17 -15 -11 2 3 10 6 26 6 35 1 15 2 15 11 -2 9 -14 7 -22 -6 -35z m116
-7 c17 -21 -5 -17 -32 5 -24 20 -24 20 -2 14 12 -3 28 -11 34 -19z m-7 -42 c2
-4 -4 -8 -14 -8 -10 0 -16 4 -14 8 3 4 9 8 14 8 5 0 11 -4 14 -8z m-138 -314
c4 -7 3 -8 -4 -4 -7 4 -12 2 -12 -5 0 -7 -3 -10 -6 -6 -6 5 3 27 11 27 2 0 7
-5 11 -12z m32 -83 c0 -32 -9 -26 -12 9 -2 14 0 23 4 21 4 -3 8 -16 8 -30z
m152 -99 c0 -3 -4 -8 -10 -11 -5 -3 -10 -1 -10 4 0 6 5 11 10 11 6 0 10 -2 10
-4z m160 -396 c12 -8 11 -10 -7 -10 -13 0 -23 5 -23 10 0 13 11 13 30 0z
m-135 -85 c-4 -37 -3 -65 2 -65 6 0 8 -74 6 -172 -4 -233 -4 -232 -14 -216 -7
10 -9 10 -9 -2 0 -8 -3 -26 -6 -40 -5 -20 -4 -22 6 -10 9 12 10 11 5 -7 -3
-12 -2 -30 3 -40 14 -26 23 -115 12 -108 -14 8 -12 -9 1 -22 6 -6 9 -17 6 -25
-3 -8 -11 -1 -23 19 -24 41 -40 43 -19 3 19 -38 2 -40 -22 -2 -10 15 -22 30
-27 33 -5 4 -6 14 -3 22 3 8 2 18 -2 23 -12 14 5 154 24 204 27 71 37 165 25
232 -11 59 -4 123 21 206 16 51 22 38 14 -33z m372 19 c-3 -3 -12 -4 -19 -1
-8 3 -5 6 6 6 11 1 17 -2 13 -5z m-232 -42 c-8 -8 -25 10 -19 20 4 6 9 5 15
-3 4 -7 6 -15 4 -17z m449 4 c38 -7 88 -13 111 -12 24 0 41 -2 39 -6 -2 -3 2
-9 8 -11 39 -16 -81 -3 -162 17 -105 26 -103 33 4 12z m193 -12 c-3 -3 -12 -4
-19 -1 -8 3 -5 6 6 6 11 1 17 -2 13 -5z m-850 -46 c-3 -8 -6 -5 -6 6 -1 11 2
17 5 13 3 -3 4 -12 1 -19z m433 7 c10 -13 16 -13 40 0 26 13 40 11 40 -6 0 -4
-13 -10 -30 -14 -16 -4 -30 -13 -30 -21 0 -17 16 -19 23 -1 4 9 8 8 16 -3 8
-11 7 -16 -4 -18 -8 -2 -15 -9 -15 -15 0 -7 -4 -19 -10 -27 -7 -12 -12 -11
-30 5 -21 19 -22 19 -42 -5 -11 -14 -17 -20 -14 -14 4 7 -8 14 -29 18 -39 8
-55 2 -55 -20 0 -8 -5 -14 -11 -14 -6 0 -9 7 -6 15 4 8 2 17 -3 20 -6 4 -10
11 -10 17 0 6 3 8 7 5 3 -4 12 2 19 12 9 12 23 18 44 16 16 -1 30 1 30 6 0 5
7 6 15 3 8 -4 15 -1 15 5 0 6 -4 12 -10 12 -5 1 -14 3 -20 4 -5 1 -13 3 -17 4
-13 3 40 30 58 31 9 0 22 -7 29 -15z m-206 -20 c-7 -17 -7 -17 -31 -8 -16 6
-15 8 7 14 14 4 26 7 27 8 1 1 0 -6 -3 -14z m-245 -279 c-9 -8 -10 -1 -5 29 3
22 7 85 8 140 2 95 2 94 5 -29 3 -89 0 -133 -8 -140z m151 184 c0 -16 -2 -30
-4 -30 -2 0 -6 14 -8 30 -3 17 -1 30 4 30 4 0 8 -13 8 -30z m147 -36 c-3 -3
-12 -4 -19 -1 -8 3 -5 6 6 6 11 1 17 -2 13 -5z m120 -28 c-3 -8 -1 -17 6 -20
7 -3 -9 -3 -35 0 -31 4 -48 2 -48 -5 0 -6 -7 -11 -15 -11 -9 0 -12 6 -9 15 4
10 20 15 44 15 22 0 42 5 45 10 9 15 18 12 12 -4z m-472 -251 c-15 -53 -54
-95 -87 -95 -8 0 -19 -5 -26 -12 -9 -9 -15 -9 -23 -1 -8 8 -8 13 0 17 6 4 11
2 11 -4 0 -6 5 -8 10 -5 6 3 10 13 10 21 0 8 -4 12 -10 9 -6 -4 -10 8 -10 29
0 20 5 36 10 36 6 0 10 6 10 14 0 8 15 33 34 55 19 23 45 62 58 88 l23 46 3
-72 c2 -45 -3 -93 -13 -126z m242 123 c-3 -8 -6 -5 -6 6 -1 11 2 17 5 13 3 -3
4 -12 1 -19z m12 -75 l-2 -48 -6 40 c-7 38 -5 55 5 55 2 0 3 -21 3 -47z m30
-15 c0 -27 -2 -29 -8 -13 -5 11 -6 26 -4 33 8 21 13 13 12 -20z m56 -38 c3 -5
1 -10 -4 -10 -6 0 -11 5 -11 10 0 6 2 10 4 10 3 0 8 -4 11 -10z m48 -7 c-7 -2
-19 -2 -25 0 -7 3 -2 5 12 5 14 0 19 -2 13 -5z m-53 -33 c0 -11 -4 -20 -8 -20
-4 0 -8 9 -9 20 -1 11 2 20 8 20 5 0 9 -9 9 -20z m-280 -147 c0 -5 -5 -15 -10
-23 -8 -12 -10 -11 -10 8 0 12 5 22 10 22 6 0 10 -3 10 -7z m300 -53 c0 -5 -5
-10 -11 -10 -5 0 -7 5 -4 10 3 6 8 10 11 10 2 0 4 -4 4 -10z m-90 -70 c-6 -11
-16 -17 -22 -14 -7 5 -5 12 7 21 25 18 28 17 15 -7z m104 -8 c3 -5 -1 -9 -9
-9 -8 0 -15 4 -15 9 0 4 4 8 9 8 6 0 12 -4 15 -8z m-59 -42 c4 -12 11 -17 18
-13 18 11 36 12 43 2 3 -5 -2 -12 -11 -15 -12 -5 -13 -9 -4 -20 18 -21 8 -24
-29 -8 -18 7 -31 18 -27 24 3 5 1 19 -5 30 -6 12 -7 20 -1 20 5 0 13 -9 16
-20z m-28 -22 c-3 -8 -6 -5 -6 6 -1 11 2 17 5 13 3 -3 4 -12 1 -19z m-83 -150
c-8 -13 25 -66 46 -73 11 -3 20 -14 20 -23 -1 -16 -2 -16 -14 1 -7 9 -22 17
-33 17 -17 0 -22 9 -28 46 -3 26 -9 54 -12 63 -4 11 -1 10 10 -4 8 -11 13 -23
11 -27z m136 -28 c0 -5 -4 -10 -10 -10 -5 0 -10 5 -10 10 0 6 5 10 10 10 6 0
10 -4 10 -10z m29 -22 c-3 -27 2 -38 17 -38 8 0 13 4 10 9 -4 5 3 7 14 4 24
-7 25 -8 2 -31 -19 -19 -30 -19 -69 0 -25 13 -32 34 -8 24 10 -3 15 1 15 13 0
16 8 31 17 31 2 0 3 -6 2 -12z m116 -84 c-16 -17 -16 -18 1 -31 9 -7 14 -16
11 -20 -4 -4 -14 0 -22 8 -12 12 -13 20 -3 47 8 19 16 28 21 23 6 -6 3 -17 -8
-27z m-389 -57 c12 -65 12 -79 -1 -111 -8 -20 -16 -36 -18 -36 -1 0 -2 51 -2
114 0 63 2 113 4 111 2 -2 9 -37 17 -78z m212 -94 c16 -16 16 -16 0 -11 -9 4
-19 2 -22 -5 -2 -7 -5 -2 -5 11 -1 26 5 28 27 5z m-3 -46 c4 5 5 2 1 -5 -4 -7
-11 -10 -16 -7 -4 3 -10 -1 -12 -7 -3 -7 -7 0 -10 15 -5 26 -4 27 12 12 9 -8
20 -12 25 -8z"/>
<path d="M1533 1125 c0 -22 2 -30 4 -17 2 12 2 30 0 40 -3 9 -5 -1 -4 -23z"/>
<path d="M1516 1042 c-4 -13 -9 -34 -11 -45 -1 -12 -5 -40 -9 -62 -3 -22 3 -8
14 30 19 66 24 129 6 77z"/>
<path d="M1480 850 c0 -11 4 -20 8 -20 4 0 8 9 9 20 1 11 -2 20 -8 20 -5 0 -9
-9 -9 -20z"/>
<path d="M2095 3225 c4 -11 11 -33 15 -50 l8 -30 1 30 c0 17 -7 39 -16 50
l-16 20 8 -20z"/>
<path d="M2010 3200 c-12 -17 -20 -33 -17 -36 3 -3 15 9 27 26 12 17 20 33 17
36 -3 3 -15 -9 -27 -26z"/>
<path d="M1955 3149 c-4 -6 -5 -13 -2 -16 7 -7 27 6 27 18 0 12 -17 12 -25 -2z"/>
<path d="M2061 3104 c0 -11 3 -14 6 -6 3 7 2 16 -1 19 -3 4 -6 -2 -5 -13z"/>
<path d="M2625 3005 c-22 -13 -51 -29 -65 -35 -14 -6 -29 -17 -35 -24 -8 -10
-78 -57 -180 -121 -16 -10 -24 -10 -42 2 -22 15 -48 19 -160 30 -50 4 -64 2
-68 -10 -9 -22 22 -90 36 -81 7 4 9 3 5 -4 -3 -6 0 -14 7 -19 19 -11 39 -99
31 -137 -3 -17 -14 -40 -23 -50 -15 -18 -15 -19 2 -13 10 4 21 7 23 7 2 0 4 6
4 13 0 7 9 18 20 25 11 7 20 19 20 27 0 13 38 85 50 95 4 3 9 12 12 20 3 9 20
17 38 18 18 1 41 7 52 13 16 8 19 7 16 -6 -2 -11 6 -21 20 -26 13 -5 22 -5 22
1 0 18 19 10 25 -10 6 -18 8 -17 37 13 16 17 48 57 71 87 23 30 63 80 89 110
69 78 78 89 78 95 0 13 -49 2 -85 -20z"/>
<path d="M1853 2945 c-3 -9 -3 -18 -1 -21 3 -3 8 4 11 16 6 23 -1 27 -10 5z"/>
<path d="M2025 2904 c-18 -28 -35 -115 -19 -101 8 8 44 127 39 127 -2 0 -10
-12 -20 -26z"/>
<path d="M1747 2843 c4 -11 3 -14 -5 -9 -7 4 -10 2 -6 -7 8 -22 32 -16 32 10
0 13 -7 23 -14 23 -8 0 -11 -6 -7 -17z"/>
<path d="M1866 2845 c4 -8 8 -15 10 -15 2 0 4 7 4 15 0 8 -4 15 -10 15 -5 0
-7 -7 -4 -15z"/>
<path d="M2632 2810 c0 -14 2 -19 5 -12 2 6 2 18 0 25 -3 6 -5 1 -5 -13z"/>
<path d="M1833 2806 c4 -10 7 -31 7 -47 0 -16 5 -29 11 -29 6 0 8 9 4 20 -5
15 -3 18 9 14 8 -3 19 3 26 15 9 17 8 21 -5 21 -9 0 -13 -4 -10 -10 3 -5 -1
-10 -9 -10 -9 0 -16 6 -16 14 0 8 -5 18 -12 22 -8 5 -9 2 -5 -10z"/>
<path d="M1740 2785 c0 -8 2 -15 4 -15 2 0 6 7 10 15 3 8 1 15 -4 15 -6 0 -10
-7 -10 -15z"/>
<path d="M1753 2735 c0 -8 4 -12 9 -9 5 3 6 10 3 15 -9 13 -12 11 -12 -6z"/>
<path d="M1868 2725 c-7 -7 18 -81 26 -77 3 1 12 2 19 2 9 0 8 3 -2 9 -8 5
-10 14 -6 21 5 9 4 11 -3 6 -8 -5 -12 2 -12 18 0 24 -10 33 -22 21z"/>
<path d="M2460 2709 c0 -5 5 -7 10 -4 6 3 10 8 10 11 0 2 -4 4 -10 4 -5 0 -10
-5 -10 -11z"/>
<path d="M2486 2705 c-3 -8 -1 -15 4 -15 6 0 10 7 10 15 0 8 -2 15 -4 15 -2 0
-6 -7 -10 -15z"/>
<path d="M2520 2705 c10 -12 10 -15 -1 -16 -8 0 -4 -4 9 -10 13 -5 21 -13 17
-19 -3 -6 1 -7 10 -4 18 7 65 -21 65 -39 0 -8 -4 -7 -10 3 -8 13 -10 12 -10
-4 0 -14 -5 -17 -21 -13 -27 7 -42 -30 -23 -59 8 -11 14 -31 13 -45 -1 -23 1
-33 17 -85 5 -19 1 -23 -35 -29 -50 -8 -56 -17 -31 -40 27 -24 27 -65 0 -65
-11 0 -20 -4 -20 -10 0 -5 -9 -10 -19 -10 -13 0 -18 -6 -16 -17 2 -10 4 -22 4
-26 1 -5 6 -5 11 -2 6 3 10 -1 10 -9 0 -10 16 -19 43 -26 23 -6 49 -15 57 -20
43 -28 73 -41 78 -34 4 4 1 9 -5 11 -9 3 -10 10 -4 22 6 10 6 23 0 32 -16 25
-10 56 12 62 18 5 19 8 8 29 -12 22 -14 26 -18 46 -1 4 -5 1 -9 -6 -5 -7 -16
-10 -25 -6 -9 3 -14 10 -11 15 3 6 0 16 -6 24 -7 8 -8 15 -3 15 10 0 36 -20
80 -60 24 -23 37 -9 22 22 -7 12 -4 20 8 27 14 8 16 14 8 28 -11 20 -8 63 4
63 15 0 38 -76 30 -98 -10 -25 -1 -82 12 -82 5 0 9 -7 9 -16 0 -8 -4 -12 -10
-9 -9 5 -15 -18 -7 -29 1 -2 -6 -12 -15 -23 -9 -10 -15 -27 -13 -38 2 -11 4
-30 4 -42 1 -13 6 -23 12 -23 5 0 8 3 6 8 -3 4 8 23 25 42 29 35 29 35 18 6
-11 -31 -7 -56 9 -56 21 0 44 131 27 158 -4 7 -4 17 0 23 3 6 6 35 5 65 -1 48
1 54 22 58 55 12 59 15 20 13 -24 -2 -43 1 -43 5 0 12 44 37 78 44 18 4 32 10
32 13 0 11 -74 -1 -95 -15 -26 -18 -35 -18 -35 2 0 48 -82 150 -157 197 -54
34 -160 72 -143 52z m130 -414 c0 -6 -4 -12 -8 -15 -5 -3 -9 1 -9 9 0 8 4 15
9 15 4 0 8 -4 8 -9z"/>
<path d="M1780 2653 c0 -8 -7 -10 -17 -6 -16 6 -16 4 1 -15 21 -24 32 -29 20
-10 -4 7 -3 8 4 4 6 -4 8 -14 5 -23 -5 -13 -1 -15 25 -11 27 4 30 2 21 -14 -6
-10 -9 -26 -7 -36 1 -9 -1 -23 -5 -29 -5 -7 -2 -22 6 -34 14 -19 15 -20 20 -2
19 64 18 99 -3 126 -12 15 -28 27 -35 27 -8 0 -19 8 -24 18 -6 9 -11 12 -11 5z"/>
<path d="M2426 2577 c3 -10 9 -15 12 -12 3 3 0 11 -7 18 -10 9 -11 8 -5 -6z"/>
<path d="M2385 2500 c-3 -5 -1 -10 4 -10 6 0 11 5 11 10 0 6 -2 10 -4 10 -3 0
-8 -4 -11 -10z"/>
<path d="M2030 2490 c-9 -6 -10 -10 -3 -10 6 0 15 5 18 10 8 12 4 12 -15 0z"/>
<path d="M2428 2483 c7 -3 16 -2 19 1 4 3 -2 6 -13 5 -11 0 -14 -3 -6 -6z"/>
<path d="M2073 2427 c-4 -8 -16 -17 -26 -20 -10 -4 -15 -11 -12 -17 8 -14 45
-13 45 1 0 6 7 9 15 5 8 -3 15 0 15 7 0 9 3 8 9 -1 6 -11 9 -9 13 6 5 16 1 20
-13 17 -11 -2 -19 0 -19 6 0 14 -18 11 -27 -4z"/>
<path d="M1391 2398 c-9 -28 -9 -30 3 -16 7 10 16 15 19 12 3 -3 3 3 0 15 -7
28 -9 27 -22 -11z"/>
<path d="M2235 2400 c-3 -5 1 -10 10 -10 9 0 13 5 10 10 -3 6 -8 10 -10 10 -2
0 -7 -4 -10 -10z"/>
<path d="M2170 2360 c0 -5 5 -10 11 -10 5 0 7 5 4 10 -3 6 -8 10 -11 10 -2 0
-4 -4 -4 -10z"/>
<path d="M1971 2288 c0 -16 2 -18 6 -8 3 8 11 18 17 22 7 5 4 8 -6 8 -12 0
-18 -7 -17 -22z"/>
<path d="M2713 2225 c-3 -9 -3 -18 0 -21 9 -9 27 6 27 22 0 19 -19 18 -27 -1z"/>
<path d="M1841 2186 c-9 -11 -9 -16 1 -22 21 -13 46 -12 41 2 -3 7 -12 10 -21
6 -15 -5 -15 -4 -3 11 7 9 9 17 3 17 -5 0 -15 -6 -21 -14z"/>
<path d="M1440 2170 c0 -5 5 -10 11 -10 5 0 7 5 4 10 -3 6 -8 10 -11 10 -2 0
-4 -4 -4 -10z"/>
<path d="M2523 2131 c-2 -24 23 -35 31 -14 3 8 4 19 0 24 -10 16 -30 10 -31
-10z"/>
<path d="M2345 2080 c3 -5 8 -10 11 -10 2 0 4 5 4 10 0 6 -5 10 -11 10 -5 0
-7 -4 -4 -10z"/>
<path d="M2612 2074 c2 -16 7 -19 25 -16 13 2 23 8 23 13 0 5 -7 6 -16 2 -9
-3 -20 0 -25 8 -6 10 -8 8 -7 -7z"/>
<path d="M2165 2070 c-3 -6 1 -10 9 -10 9 0 16 -7 16 -16 0 -11 5 -14 16 -10
9 4 22 2 29 -4 18 -15 26 1 12 21 -14 19 -74 32 -82 19z"/>
<path d="M2591 2064 c0 -11 3 -14 6 -6 3 7 2 16 -1 19 -3 4 -6 -2 -5 -13z"/>
<path d="M2759 2078 c-7 -23 -5 -39 5 -45 7 -5 16 -15 19 -23 4 -10 6 -8 6 7
1 12 6 25 11 28 6 3 10 14 10 23 0 14 -2 13 -13 -3 -11 -14 -16 -15 -22 -5 -6
9 -4 11 5 5 9 -5 11 -4 6 3 -6 10 -25 17 -27 10z"/>
<path d="M1650 2061 c0 -6 5 -13 10 -16 6 -3 10 1 10 9 0 9 -4 16 -10 16 -5 0
-10 -4 -10 -9z"/>
<path d="M1797 2033 c-4 -3 -22 -8 -39 -10 -18 -2 -56 -13 -84 -26 -39 -16
-51 -27 -51 -43 0 -17 4 -20 20 -16 14 4 18 2 13 -7 -5 -8 0 -14 13 -18 12 -3
21 -9 21 -14 0 -5 7 -9 15 -9 8 0 15 4 15 9 0 12 37 6 55 -9 8 -7 25 -6 55 5
53 19 47 20 63 -11 10 -19 24 -28 47 -31 38 -4 60 -19 60 -40 0 -11 12 -13 60
-8 70 6 117 -2 101 -18 -6 -6 -11 -18 -11 -26 0 -11 7 -7 23 11 23 28 43 35
140 45 43 4 57 10 58 22 0 13 2 12 8 -3 6 -16 11 -13 39 24 24 34 33 40 38 27
3 -9 2 -22 -2 -28 -4 -7 5 -4 19 7 20 14 26 26 24 48 -1 16 3 31 9 33 6 2 11
-9 12 -26 1 -60 50 -116 83 -95 6 3 18 23 26 42 15 36 15 36 32 15 9 -11 22
-29 29 -39 10 -16 11 -10 6 36 -3 30 -12 72 -19 93 -8 24 -9 37 -2 37 6 0 8 2
5 5 -12 12 -33 -7 -34 -31 -2 -31 -56 -138 -69 -137 -16 2 -18 23 -2 23 18 0
37 42 37 85 0 18 6 36 13 38 6 3 2 6 -10 6 -12 1 -25 -3 -28 -9 -3 -5 -16 -10
-29 -10 -12 0 -27 -5 -32 -10 -14 -14 -85 -19 -100 -8 -7 5 -27 1 -49 -8 -42
-17 -123 -12 -138 9 -5 7 -5 1 -2 -12 5 -16 4 -21 -4 -17 -6 4 -11 15 -11 24
-1 15 -2 15 -13 2 -7 -8 -23 -14 -36 -12 -14 2 -21 0 -17 -7 4 -6 -3 -13 -16
-16 -37 -8 -68 -2 -68 15 0 16 -42 60 -57 60 -6 0 -18 9 -28 20 -10 11 -22 17
-28 13 -6 -3 -25 -6 -43 -5 -18 1 -36 -3 -39 -8 -4 -6 -15 -4 -28 5 -23 16
-40 19 -50 8z m747 -109 c3 -8 2 -12 -4 -9 -6 3 -10 10 -10 16 0 14 7 11 14
-7z m16 -34 c0 -5 -2 -10 -4 -10 -3 0 -8 5 -11 10 -3 6 -1 10 4 10 6 0 11 -4
11 -10z"/>
<path d="M2150 2006 c24 -22 60 -30 60 -13 0 9 6 18 13 20 7 4 6 6 -5 6 -9 1
-19 -5 -21 -11 -4 -10 -6 -10 -6 0 -1 6 -6 12 -12 12 -5 0 -7 -6 -3 -12 6 -10
4 -10 -7 0 -7 6 -18 12 -23 12 -6 0 -4 -6 4 -14z"/>
<path d="M1716 1883 c-12 -12 -6 -33 9 -33 8 0 15 6 15 14 0 17 -14 28 -24 19z"/>
<path d="M1683 1873 c-18 -7 -16 -20 2 -20 8 0 15 6 15 14 0 7 -1 13 -2 12 -2
0 -9 -3 -15 -6z"/>
<path d="M1780 1850 c-13 -9 -13 -10 0 -10 8 0 22 5 30 10 13 9 13 10 0 10 -8
0 -22 -5 -30 -10z"/>
<path d="M2488 1848 c5 -5 16 -8 23 -6 8 3 3 7 -10 11 -17 4 -21 3 -13 -5z"/>
<path d="M2830 1851 c0 -6 4 -13 10 -16 6 -3 7 1 4 9 -7 18 -14 21 -14 7z"/>
<path d="M1541 1794 c0 -11 3 -14 6 -6 3 7 2 16 -1 19 -3 4 -6 -2 -5 -13z"/>
<path d="M1596 1801 c-4 -6 -2 -11 3 -11 19 0 12 -28 -9 -33 -25 -6 -27 -36
-2 -33 9 2 24 15 32 29 13 24 13 28 -1 43 -11 11 -19 12 -23 5z"/>
<path d="M1930 1793 c0 -11 5 -11 20 -3 11 6 20 13 20 15 0 2 -9 3 -20 2 -11
-1 -20 -7 -20 -14z"/>
<path d="M2550 1806 c0 -2 7 -7 16 -10 8 -3 12 -2 9 4 -6 10 -25 14 -25 6z"/>
<path d="M2305 1781 c-11 -5 -26 -6 -33 -4 -6 3 -24 -3 -38 -12 -15 -9 -23
-12 -20 -6 10 15 0 14 -35 -5 -29 -15 -31 -14 -36 5 -5 19 -7 20 -32 7 -38
-20 -145 -38 -149 -26 -6 18 -22 11 -16 -7 5 -17 5 -17 -6 0 -14 21 -39 22
-46 2 -5 -11 -10 -13 -19 -5 -9 8 -15 8 -20 0 -3 -5 -11 -10 -16 -10 -6 0 -7
5 -3 11 4 7 -1 7 -16 -1 -23 -12 -43 -4 -22 9 7 4 -11 7 -39 7 -32 -1 -54 -6
-56 -13 -3 -8 5 -13 19 -13 l23 0 -25 -20 c-19 -15 -21 -20 -9 -20 9 0 19 -7
23 -15 3 -8 10 -15 16 -15 6 0 28 -13 48 -29 37 -30 37 -30 94 -17 31 8 61 17
66 20 5 3 12 -3 15 -14 3 -11 11 -20 19 -20 11 0 11 2 -1 9 -10 7 -11 13 -2
27 6 12 11 14 11 5 0 -11 5 -10 25 3 13 9 44 16 69 16 24 0 51 6 58 14 8 7 25
17 38 21 22 7 23 6 11 -9 -20 -24 -7 -20 51 18 88 56 123 114 53 87z m4 -34
c-2 -2 -21 -15 -41 -30 -21 -16 -38 -23 -38 -17 0 11 58 50 74 50 5 0 7 -1 5
-3z"/>
<path d="M2570 1770 c0 -6 7 -10 15 -10 8 0 15 2 15 4 0 2 -7 6 -15 10 -8 3
-15 1 -15 -4z"/>
<path d="M2411 1747 c-37 -18 -40 -39 -4 -31 31 7 55 24 34 24 -7 0 -9 5 -6
10 8 13 5 12 -24 -3z"/>
<path d="M2510 1750 c-12 -8 -11 -10 8 -10 12 0 22 5 22 10 0 13 -11 13 -30 0z"/>
<path d="M2217 1650 c-5 -21 1 -25 18 -12 16 11 16 32 1 32 -7 0 -16 -9 -19
-20z"/>
<path d="M2228 1613 c7 -3 16 -2 19 1 4 3 -2 6 -13 5 -11 0 -14 -3 -6 -6z"/>
<path d="M2708 1603 c16 -30 28 -35 28 -13 0 11 -2 17 -5 15 -2 -3 -11 1 -19
8 -13 10 -14 9 -4 -10z"/>
<path d="M2216 1583 c-6 -14 -5 -15 5 -6 7 7 10 15 7 18 -3 3 -9 -2 -12 -12z"/>
<path d="M1908 1583 c-10 -2 -18 -9 -18 -14 0 -5 -7 -9 -16 -9 -8 0 -12 -5 -8
-11 3 -6 2 -14 -4 -18 -5 -3 10 -6 35 -7 32 -1 40 2 29 8 -23 13 -20 27 9 34
14 3 22 10 19 15 -5 9 -17 10 -46 2z"/>
<path d="M2020 1555 c0 -8 7 -15 16 -15 14 0 14 3 4 15 -7 8 -14 15 -16 15 -2
0 -4 -7 -4 -15z"/>
<path d="M2075 1531 c-7 -12 3 -17 39 -16 17 0 31 6 33 15 4 12 3 12 -5 1 -7
-9 -12 -10 -16 -2 -9 13 -43 15 -51 2z"/>
<path d="M1421 1354 c0 -11 3 -14 6 -6 3 7 2 16 -1 19 -3 4 -6 -2 -5 -13z"/>
<path d="M1401 1274 c0 -11 3 -14 6 -6 3 7 2 16 -1 19 -3 4 -6 -2 -5 -13z"/>
<path d="M1339 1173 c-6 -21 -23 -57 -36 -80 -17 -30 -21 -43 -12 -49 7 -4 9
-3 5 4 -3 6 0 17 8 24 17 18 56 94 61 119 7 34 -13 20 -26 -18z"/>
<path d="M2554 1106 c-7 -18 31 -62 40 -48 7 12 -13 62 -26 62 -5 0 -11 -7
-14 -14z"/>
<path d="M1845 1081 c-8 -15 3 -31 21 -31 9 0 14 7 12 17 -4 20 -24 28 -33 14z"/>
<path d="M1890 1030 c13 -9 13 -10 0 -10 -13 0 -13 -1 0 -10 11 -7 11 -10 2
-10 -7 0 -10 -4 -7 -10 11 -18 34 -11 30 10 -5 28 -14 40 -28 40 -7 0 -6 -4 3
-10z"/>
<path d="M2590 986 c0 -2 11 -6 25 -8 13 -3 22 -1 19 3 -5 9 -44 13 -44 5z"/>
<path d="M1875 960 c-8 -26 3 -46 18 -31 16 16 17 39 2 45 -8 3 -17 -3 -20
-14z"/>
<path d="M2630 920 c0 -19 32 -60 47 -60 12 0 13 3 3 15 -6 8 -8 20 -4 26 4 7
3 9 -4 5 -6 -3 -18 1 -26 10 -9 8 -16 10 -16 4z"/>
<path d="M2256 905 c-3 -10 -3 -22 3 -28 12 -12 20 4 11 27 -6 19 -7 19 -14 1z"/>
<path d="M2252 835 c0 -16 2 -22 5 -12 2 9 2 23 0 30 -3 6 -5 -1 -5 -18z"/>
<path d="M2670 831 c0 -5 7 -14 16 -21 8 -8 22 -29 30 -49 12 -29 17 -33 25
-21 8 12 9 10 4 -6 -6 -23 19 -53 29 -35 4 5 2 12 -4 16 -6 4 -8 10 -5 15 3 5
-4 18 -16 29 -12 11 -18 24 -15 29 3 6 -7 20 -23 31 -32 23 -41 26 -41 12z"/>
<path d="M2237 673 c8 -50 13 -55 13 -10 0 20 -4 38 -9 42 -6 3 -7 -10 -4 -32z"/>
<path d="M1507 683 c-9 -8 -8 -157 1 -208 5 -26 8 5 7 87 0 71 0 128 -1 128 0
0 -4 -3 -7 -7z"/>
<path d="M2758 674 c-3 -3 0 -18 7 -32 17 -33 33 -160 24 -193 -7 -30 3 -69
16 -66 6 1 10 17 10 35 0 18 7 37 15 42 10 7 11 13 5 18 -19 14 -37 67 -40
121 -3 50 -23 90 -37 75z"/>
<path d="M2236 458 c-8 -32 -7 -81 2 -96 5 -7 27 -13 49 -15 23 -1 39 -5 37
-9 -2 -4 12 -12 31 -19 21 -8 35 -20 35 -29 0 -10 9 -25 20 -35 18 -16 20 -16
26 -2 3 9 -1 24 -10 32 -9 9 -16 20 -16 25 0 5 -16 14 -35 21 -42 16 -45 26
-7 32 15 2 5 4 -23 4 -75 0 -87 2 -80 13 3 6 -1 10 -11 10 -14 0 -16 7 -11 45
7 48 3 60 -7 23z"/>
<path d="M1522 405 c0 -16 2 -22 5 -12 2 9 2 23 0 30 -3 6 -5 -1 -5 -18z"/>
<path d="M2311 406 c2 -2 31 -6 64 -9 39 -4 54 -3 45 3 -14 9 -119 15 -109 6z"/>
<path d="M2410 353 c8 -3 24 -10 35 -15 20 -9 20 -9 1 6 -11 9 -27 16 -35 15
-14 0 -14 -1 -1 -6z"/>
<path d="M2787 350 c-5 -12 -3 -55 3 -55 1 0 3 -30 4 -67 1 -38 -2 -68 -6 -68
-4 0 -8 -10 -8 -22 0 -12 -7 -29 -15 -38 -18 -20 -24 -61 -9 -67 13 -4 34 34
38 68 2 13 8 49 14 79 12 65 12 90 -1 90 -5 0 -5 6 2 13 6 8 7 17 2 23 -5 5
-11 20 -13 34 -3 18 -6 21 -11 10z"/>
<path d="M1541 324 c0 -11 3 -14 6 -6 3 7 2 16 -1 19 -3 4 -6 -2 -5 -13z"/>
<path d="M2515 325 c4 -11 10 -49 13 -85 5 -56 6 -61 13 -32 7 36 -6 111 -23
127 -8 7 -9 4 -3 -10z"/>
<path d="M2490 267 c4 -41 5 -41 8 -8 2 18 0 37 -5 42 -5 5 -6 -11 -3 -34z"/>
<path d="M2351 238 c1 -7 4 -23 7 -35 7 -21 8 -21 29 -4 l21 18 -29 17 c-21
13 -29 14 -28 4z"/>
<path d="M2240 216 c0 -4 7 -14 15 -22 8 -9 15 -25 15 -37 0 -12 4 -17 8 -12
4 6 18 12 32 13 29 4 52 22 28 22 -8 0 -21 6 -28 14 -6 8 -18 12 -26 9 -8 -3
-21 0 -29 7 -8 7 -15 9 -15 6z"/>
<path d="M1585 175 c3 -22 8 -70 11 -107 4 -38 11 -68 15 -68 13 0 10 23 -11
125 -11 50 -17 72 -15 50z"/>
<path d="M2482 25 c0 -17 2 -22 5 -12 2 9 2 23 0 30 -3 6 -5 -1 -5 -18z"/>
<path d="M2442 20 c0 -14 2 -19 5 -12 2 6 2 18 0 25 -3 6 -5 1 -5 -13z"/>
<path d="M2707 24 c-12 -13 -8 -20 14 -21 11 -1 19 3 17 9 -5 15 -22 21 -31
12z"/>
</g>
</svg>
